<svg width="905" height="843" viewBox="0 0 905 843" fill="none" xmlns="http://www.w3.org/2000/svg">
<path d="M97.5 47.5L66 79L97.5 110.5L66 142" stroke="rgba(39, 48, 54, .5)" stroke-width="20" stroke-linecap="round" stroke-linejoin="round"/>
<path d="M378.87 80.7928L363.791 122.711L405.709 137.79L390.63 179.708" stroke="rgba(39, 48, 54, .5)" stroke-width="20" stroke-linecap="round" stroke-linejoin="round"/>
<path d="M699.69 138.455L680.62 178.715L720.88 197.785L701.811 238.044" stroke="rgba(39, 48, 54, .5)" stroke-width="20" stroke-linecap="round" stroke-linejoin="round"/>
<path d="M849.665 11L830.595 51.2599L870.855 70.3293L851.786 110.589" stroke="rgba(39, 48, 54, .5)" stroke-width="20" stroke-linecap="round" stroke-linejoin="round"/>
<path d="M137.803 430.899L149.22 473.959L192.28 462.541L203.697 505.601" stroke="rgba(39, 48, 54, .5)" stroke-width="20" stroke-linecap="round" stroke-linejoin="round"/>
<path d="M608.821 707L620.239 750.06L663.298 738.642L674.716 781.702" stroke="rgba(39, 48, 54, .5)" stroke-width="20" stroke-linecap="round" stroke-linejoin="round"/>
<path d="M790.821 456L802.239 499.06L845.298 487.642L856.716 530.702" stroke="rgba(39, 48, 54, .5)" stroke-width="20" stroke-linecap="round" stroke-linejoin="round"/>
<path d="M15.8211 610L27.2386 653.06L70.2984 641.642L81.7159 684.702" stroke="rgba(39, 48, 54, .5)" stroke-width="20" stroke-linecap="round" stroke-linejoin="round"/>
<path fill-rule="evenodd" clip-rule="evenodd" d="M634 563C649.464 563 662 550.464 662 535C662 519.536 649.464 507 634 507C618.536 507 606 519.536 606 535C606 550.464 618.536 563 634 563ZM634 549C641.732 549 648 542.732 648 535C648 527.268 641.732 521 634 521C626.268 521 620 527.268 620 535C620 542.732 626.268 549 634 549Z" fill="rgba(39, 48, 54, .5)"/>
<path fill-rule="evenodd" clip-rule="evenodd" d="M399 670C414.464 670 427 657.464 427 642C427 626.536 414.464 614 399 614C383.536 614 371 626.536 371 642C371 657.464 383.536 670 399 670ZM399 656C406.732 656 413 649.732 413 642C413 634.268 406.732 628 399 628C391.268 628 385 634.268 385 642C385 649.732 391.268 656 399 656Z" fill="rgba(39, 48, 54, .5)"/>
<path fill-rule="evenodd" clip-rule="evenodd" d="M327 843C342.464 843 355 830.464 355 815C355 799.536 342.464 787 327 787C311.536 787 299 799.536 299 815C299 830.464 311.536 843 327 843ZM327 829C334.732 829 341 822.732 341 815C341 807.268 334.732 801 327 801C319.268 801 313 807.268 313 815C313 822.732 319.268 829 327 829Z" fill="rgba(39, 48, 54, .5)"/>
<path fill-rule="evenodd" clip-rule="evenodd" d="M877 779C892.464 779 905 766.464 905 751C905 735.536 892.464 723 877 723C861.536 723 849 735.536 849 751C849 766.464 861.536 779 877 779ZM877 765C884.732 765 891 758.732 891 751C891 743.268 884.732 737 877 737C869.268 737 863 743.268 863 751C863 758.732 869.268 765 877 765Z" fill="rgba(39, 48, 54, .5)"/>
<path fill-rule="evenodd" clip-rule="evenodd" d="M614 78C629.464 78 642 65.464 642 50C642 34.536 629.464 22 614 22C598.536 22 586 34.536 586 50C586 65.464 598.536 78 614 78ZM614 64C621.732 64 628 57.732 628 50C628 42.268 621.732 36 614 36C606.268 36 600 42.268 600 50C600 57.732 606.268 64 614 64Z" fill="rgba(39, 48, 54, .5)"/>
<path fill-rule="evenodd" clip-rule="evenodd" d="M156 286C171.464 286 184 273.464 184 258C184 242.536 171.464 230 156 230C140.536 230 128 242.536 128 258C128 273.464 140.536 286 156 286ZM156 272C163.732 272 170 265.732 170 258C170 250.268 163.732 244 156 244C148.268 244 142 250.268 142 258C142 265.732 148.268 272 156 272Z" fill="rgba(39, 48, 54, .5)"/>
</svg>
