<svg width="100" height="100" viewBox="0 0 100 100" fill="none" xmlns="http://www.w3.org/2000/svg">
<rect width="100" height="100" fill="none"/>
<g id="logo_bangef_circle">
<rect width="100" height="100" fill="none"/>
<circle id="Ellipse 3" cx="50" cy="50" r="49" stroke="#171717" stroke-width="2" stroke-dasharray="10 10">
    <animateTransform 
    attributeName="transform" 
    attributeType="XML"
    type="rotate"
    from="0 50 50"
    to="360 50 50"
    dur="10s"
    repeatCount="indefinite"
    />
</circle>
<g id="Group 4">
<mask id="mask0_0_1" style="mask-type:alpha" maskUnits="userSpaceOnUse" x="7" y="7" width="86" height="86">
<circle id="Ellipse 4" cx="50" cy="50" r="43" fill="#C4C4C4"/>
</mask>
<g mask="url(#mask0_0_1)">
<g id="Logo Bangef -  squere">
<rect id="Rectangle 14" x="7" y="7" width="86" height="86" fill="#171717"/>
<g id="Background">
<path id="Vector 1" d="M21.1343 18.9843L18.626 21.4926L21.1343 24.0009L18.626 26.5093" stroke="#444444" stroke-width="1.59259" stroke-linecap="round" stroke-linejoin="round"/>
<path id="Vector 2" d="M43.5397 21.6354L42.339 24.9733L45.6769 26.174L44.4762 29.512" stroke="#444444" stroke-width="1.59259" stroke-linecap="round" stroke-linejoin="round"/>
<path id="Vector 4" d="M69.0863 26.2269L67.5678 29.4327L70.7737 30.9512L69.2552 34.1571" stroke="#444444" stroke-width="1.59259" stroke-linecap="round" stroke-linejoin="round"/>
<path id="Vector 6" d="M81.0288 16.0777L79.5103 19.2836L82.7162 20.8021L81.1977 24.0079" stroke="#444444" stroke-width="1.59259" stroke-linecap="round" stroke-linejoin="round"/>
<path id="Vector 3" d="M24.3434 49.5142L25.2526 52.9431L28.6814 52.0339L29.5906 55.4627" stroke="#444444" stroke-width="1.59259" stroke-linecap="round" stroke-linejoin="round"/>
<path id="Vector 8" d="M61.8505 71.4998L62.7597 74.9287L66.1885 74.0195L67.0977 77.4483" stroke="#444444" stroke-width="1.59259" stroke-linecap="round" stroke-linejoin="round"/>
<path id="Vector 7" d="M76.3433 51.5129L77.2525 54.9417L80.6813 54.0325L81.5905 57.4614" stroke="#444444" stroke-width="1.59259" stroke-linecap="round" stroke-linejoin="round"/>
<path id="Vector 5" d="M14.6302 63.7758L15.5394 67.2047L18.9682 66.2955L19.8774 69.7243" stroke="#444444" stroke-width="1.59259" stroke-linecap="round" stroke-linejoin="round"/>
<path id="Exclude" fill-rule="evenodd" clip-rule="evenodd" d="M63.8556 60.0332C65.087 60.0332 66.0852 59.035 66.0852 57.8036C66.0852 56.5722 65.087 55.574 63.8556 55.574C62.6242 55.574 61.626 56.5722 61.626 57.8036C61.626 59.035 62.6242 60.0332 63.8556 60.0332ZM63.8556 58.9184C64.4713 58.9184 64.9704 58.4192 64.9704 57.8036C64.9704 57.1879 64.4713 56.6887 63.8556 56.6887C63.2399 56.6887 62.7408 57.1879 62.7408 57.8036C62.7408 58.4192 63.2399 58.9184 63.8556 58.9184Z" fill="#444444"/>
<path id="Exclude_2" fill-rule="evenodd" clip-rule="evenodd" d="M45.1426 68.5536C46.374 68.5536 47.3722 67.5554 47.3722 66.324C47.3722 65.0926 46.374 64.0944 45.1426 64.0944C43.9112 64.0944 42.913 65.0926 42.913 66.324C42.913 67.5554 43.9112 68.5536 45.1426 68.5536ZM45.1428 67.439C45.7585 67.439 46.2576 66.9398 46.2576 66.3241C46.2576 65.7084 45.7585 65.2093 45.1428 65.2093C44.5271 65.2093 44.028 65.7084 44.028 66.3241C44.028 66.9398 44.5271 67.439 45.1428 67.439Z" fill="#444444"/>
<path id="Exclude_3" fill-rule="evenodd" clip-rule="evenodd" d="M39.4093 82.3295C40.6407 82.3295 41.6389 81.3313 41.6389 80.0999C41.6389 78.8685 40.6407 77.8702 39.4093 77.8702C38.1779 77.8702 37.1797 78.8685 37.1797 80.0999C37.1797 81.3313 38.1779 82.3295 39.4093 82.3295ZM39.4092 81.2146C40.0249 81.2146 40.5241 80.7155 40.5241 80.0998C40.5241 79.4841 40.0249 78.985 39.4092 78.985C38.7936 78.985 38.2944 79.4841 38.2944 80.0998C38.2944 80.7155 38.7936 81.2146 39.4092 81.2146Z" fill="#444444"/>
<path id="Exclude_4" fill-rule="evenodd" clip-rule="evenodd" d="M83.2056 77.2332C84.437 77.2332 85.4352 76.2349 85.4352 75.0036C85.4352 73.7722 84.437 72.7739 83.2056 72.7739C81.9742 72.7739 80.976 73.7722 80.976 75.0036C80.976 76.2349 81.9742 77.2332 83.2056 77.2332ZM83.2055 76.1185C83.8212 76.1185 84.3203 75.6194 84.3203 75.0037C84.3203 74.388 83.8212 73.8889 83.2055 73.8889C82.5898 73.8889 82.0907 74.388 82.0907 75.0037C82.0907 75.6194 82.5898 76.1185 83.2055 76.1185Z" fill="#444444"/>
<path id="Exclude_5" fill-rule="evenodd" clip-rule="evenodd" d="M62.263 21.413C63.4943 21.413 64.4926 20.4148 64.4926 19.1834C64.4926 17.952 63.4943 16.9537 62.263 16.9537C61.0316 16.9537 60.0333 17.952 60.0333 19.1834C60.0333 20.4148 61.0316 21.413 62.263 21.413ZM62.2628 20.2982C62.8784 20.2982 63.3776 19.799 63.3776 19.1833C63.3776 18.5676 62.8784 18.0685 62.2628 18.0685C61.6471 18.0685 61.1479 18.5676 61.1479 19.1833C61.1479 19.799 61.6471 20.2982 62.2628 20.2982Z" fill="#444444"/>
<path id="Exclude_6" fill-rule="evenodd" clip-rule="evenodd" d="M25.7924 37.9757C27.0238 37.9757 28.022 36.9775 28.022 35.7461C28.022 34.5147 27.0238 33.5165 25.7924 33.5165C24.561 33.5165 23.5627 34.5147 23.5627 35.7461C23.5627 36.9775 24.561 37.9757 25.7924 37.9757ZM25.7925 36.8607C26.4082 36.8607 26.9074 36.3616 26.9074 35.7459C26.9074 35.1302 26.4082 34.6311 25.7925 34.6311C25.1768 34.6311 24.6777 35.1302 24.6777 35.7459C24.6777 36.3616 25.1768 36.8607 25.7925 36.8607Z" fill="#444444"/>
</g>
<path id="BF" d="M46.1857 50.3998C47.6084 50.6333 48.5534 51.1324 49.0205 51.8968C49.5089 52.64 49.7531 53.5212 49.7531 54.5405C49.7531 54.7529 49.7425 54.9121 49.7213 55.0183C49.3178 57.6089 48.2349 59.4563 46.4724 60.5605C44.7099 61.6435 42.6289 62.185 40.2294 62.185C39.6136 62.185 38.9447 62.1106 38.2228 61.962C37.522 61.8346 36.9487 61.6435 36.5028 61.3887C36.1842 61.6222 35.5897 61.739 34.719 61.739C34.1457 61.739 33.7423 61.5161 33.5087 61.0701C33.2751 60.603 33.1583 60.0403 33.1583 59.382C33.1583 59.1484 33.1902 58.9254 33.2539 58.7131L36.8213 44.4435C35.3136 44.9531 34.3793 45.484 34.0183 46.0361C33.36 45.3353 33.0309 44.6877 33.0309 44.0931C33.0309 43.6259 33.2114 43.1482 33.5724 42.6598C34.4218 42.1077 35.802 41.5874 37.7131 41.099C37.883 40.6531 38.0953 40.3452 38.3502 40.1753C38.6262 40.0054 39.0297 39.9205 39.5605 39.9205C40.0065 39.9205 40.4205 39.963 40.8028 40.0479C41.2062 40.1329 41.4929 40.2603 41.6628 40.4301C42.682 40.3027 43.7119 40.239 44.7524 40.239C46.9183 40.239 48.5109 40.6743 49.5302 41.5449C50.5494 42.3943 51.0591 43.5835 51.0591 45.1124C51.0591 46.4077 50.6025 47.5225 49.6894 48.4568C48.7763 49.3699 47.6084 50.0175 46.1857 50.3998ZM39.7198 49.5716C44.3702 49.1894 46.6953 47.8304 46.6953 45.4946C46.6953 44.8363 46.4936 44.3267 46.0902 43.9657C45.6867 43.5835 44.9966 43.3924 44.0198 43.3924C43.1492 43.3924 42.183 43.4454 41.1213 43.5516L39.7198 49.5716ZM39.8153 59.0953C40.7709 59.0953 41.6946 58.9254 42.5865 58.5857C43.4995 58.2247 44.2428 57.7257 44.8161 57.0887C45.3894 56.4304 45.6761 55.6659 45.6761 54.7953C45.6761 54.0733 45.4213 53.4575 44.9116 52.9479C44.4232 52.417 43.7331 52.1516 42.8413 52.1516C41.1637 52.1516 39.9534 52.2153 39.2102 52.3427C38.8704 53.4894 38.3077 55.6129 37.522 58.7131C38.2015 58.9679 38.966 59.0953 39.8153 59.0953ZM69.9427 39.7931C70.7072 40.1966 71.0894 40.7062 71.0894 41.322C71.0894 41.7042 70.877 42.0652 70.4524 42.4049C70.0489 42.7235 69.5924 42.9464 69.0827 43.0738C65.1119 43.3287 62.2027 43.5516 60.3553 43.7427L58.6035 50.6864C60.281 50.4104 61.5869 50.2299 62.5212 50.145C63.4556 50.06 64.0289 50.0069 64.2412 49.9857L65.0375 49.922C65.8657 50.283 66.2798 50.7714 66.2798 51.3872C66.2798 51.918 66.0356 52.3427 65.5472 52.6612C65.08 52.9798 64.5385 53.2027 63.9227 53.3301C63.4131 53.3938 62.6699 53.4682 61.6931 53.5531C61.4383 53.5743 60.918 53.6274 60.1323 53.7124C59.3679 53.7973 58.5822 53.9035 57.7753 54.0309L56.2464 60.1783C56.1403 60.6242 56.0235 60.9533 55.8961 61.1657C55.7899 61.3568 55.5882 61.4948 55.2909 61.5798C55.0148 61.6859 54.5901 61.739 54.0168 61.739C53.3585 61.739 52.8701 61.6222 52.5516 61.3887C52.2543 61.1763 52.1057 60.8047 52.1057 60.2738C52.1057 60.0403 52.1375 59.8173 52.2012 59.605L56.342 43.2331C56.0447 42.7659 55.8961 42.4262 55.8961 42.2138C55.9385 41.598 56.342 41.1096 57.1064 40.7487C58.699 40.5363 60.9286 40.3346 63.7953 40.1435C66.662 39.9311 68.7111 39.8143 69.9427 39.7931Z" fill="#EDEDED"/>
</g>
</g>
</g>
</g>
</svg>