<svg width="1824" height="150" viewBox="0 0 1824 150" fill="none" xmlns="http://www.w3.org/2000/svg">
<path d="M0 82.7701L13.8067 74.3664C27.6133 65.9627 55.7333 49.1552 82.3333 49.1552C110.58 49.1552 138.067 65.9627 165.933 65.9627C193.42 65.9627 221.667 49.1552 248.267 40.7515C276.387 32.3477 304 32.3477 331.867 40.7515C359.227 49.1552 386.333 65.9627 414.2 82.7701C442.193 99.5776 469.933 116.385 497.8 116.385C525.033 116.385 552.267 99.5776 580.133 74.3664C608 49.1552 635.867 15.5403 663.733 4.3528C690.967 -7.04476 718.2 4.51035 746.067 32.3477C773.807 60.1851 801.8 105.355 829.667 105.198C856.773 105.355 884.133 60.1851 912 32.3477C939.613 4.51035 967.733 -7.04478 994.333 15.5403C1022.58 38.1253 1050.07 93.8 1077.93 113.601C1105.42 133.193 1133.67 116.385 1160.27 99.5776C1188.39 82.7701 1216 65.9627 1243.87 71.5827C1271.23 76.9926 1298.33 105.355 1326.2 110.765C1354.19 116.385 1381.93 99.5776 1409.8 79.9864C1437.03 60.1851 1464.27 38.1253 1492.13 32.3477C1520 26.5702 1547.87 38.1253 1575.73 37.9677C1602.97 38.1253 1630.2 26.5702 1658.07 32.3477C1685.81 38.1253 1713.8 60.1851 1741.67 71.5827C1768.77 82.7701 1796.13 82.7701 1810.07 82.7701H1824V150H1810.19C1796.39 150 1768.27 150 1741.67 150C1713.42 150 1685.93 150 1658.07 150C1630.58 150 1602.33 150 1575.73 150C1547.61 150 1520 150 1492.13 150C1464.77 150 1437.67 150 1409.8 150C1381.81 150 1354.07 150 1326.2 150C1298.97 150 1271.73 150 1243.87 150C1216 150 1188.13 150 1160.27 150C1133.03 150 1105.8 150 1077.93 150C1050.19 150 1022.2 150 994.333 150C967.227 150 939.867 150 912 150C884.387 150 856.267 150 829.667 150C801.42 150 773.933 150 746.067 150C718.58 150 690.333 150 663.733 150C635.613 150 608 150 580.133 150C552.773 150 525.667 150 497.8 150C469.807 150 442.067 150 414.2 150C386.967 150 359.733 150 331.867 150C304 150 276.133 150 248.267 150C221.033 150 193.8 150 165.933 150C138.193 150 110.2 150 82.3333 150C55.2267 150 27.8667 150 13.9333 150H0V82.7701Z" fill="#273036"/>
</svg>
