<svg width="1440" height="320" viewBox="0 0 1440 320" fill="none" xmlns="http://www.w3.org/2000/svg">
<path d="M0 0L7.3 10.7C14.5 21 29 43 44 74.7C58.2 107 73 149 87 144C101.8 139 116 85 131 53.3C145.5 21 160 11 175 53.3C189.1 96 204 192 218 208C232.7 224 247 160 262 149.3C276.4 139 291 181 305 202.7C320 224 335 224 349 202.7C363.6 181 378 139 393 138.7C407.3 139 422 181 436 192C450.9 203 465 181 480 149.3C494.5 117 509 75 524 85.3C538.2 96 553 160 567 165.3C581.8 171 596 117 611 96C625.5 75 640 85 655 122.7C669.1 160 684 224 698 229.3C712.7 235 727 181 742 144C756.4 107 771 85 785 106.7C800 128 815 192 829 197.3C843.6 203 858 149 873 128C887.3 107 902 117 916 149.3C930.9 181 945 235 960 256C974.5 277 989 267 1004 272C1018.2 277 1033 299 1047 298.7C1061.8 299 1076 277 1091 261.3C1105.5 245 1120 235 1135 218.7C1149.1 203 1164 181 1178 181.3C1192.7 181 1207 203 1222 202.7C1236.4 203 1251 181 1265 144C1280 107 1295 53 1309 80C1323.6 107 1338 213 1353 261.3C1367.3 309 1382 299 1396 277.3C1410.9 256 1425 224 1433 208L1440 192V320H1432.7C1425.5 320 1411 320 1396 320C1381.8 320 1367 320 1353 320C1338.2 320 1324 320 1309 320C1294.5 320 1280 320 1265 320C1250.9 320 1236 320 1222 320C1207.3 320 1193 320 1178 320C1163.6 320 1149 320 1135 320C1120 320 1105 320 1091 320C1076.4 320 1062 320 1047 320C1032.7 320 1018 320 1004 320C989.1 320 975 320 960 320C945.5 320 931 320 916 320C901.8 320 887 320 873 320C858.2 320 844 320 829 320C814.5 320 800 320 785 320C770.9 320 756 320 742 320C727.3 320 713 320 698 320C683.6 320 669 320 655 320C640 320 625 320 611 320C596.4 320 582 320 567 320C552.7 320 538 320 524 320C509.1 320 495 320 480 320C465.5 320 451 320 436 320C421.8 320 407 320 393 320C378.2 320 364 320 349 320C334.5 320 320 320 305 320C290.9 320 276 320 262 320C247.3 320 233 320 218 320C203.6 320 189 320 175 320C160 320 145 320 131 320C116.4 320 102 320 87 320C72.7 320 58 320 44 320C29.1 320 15 320 7 320H0V0Z" fill="#273036"/>
</svg>
