<svg width="1824" height="300" viewBox="0 0 1824 300" fill="none" xmlns="http://www.w3.org/2000/svg">
<g clip-path="url(#clip0_438_36)">
<path d="M0 232.77L13.8067 224.366C27.6133 215.963 55.7333 199.155 82.3333 199.155C110.58 199.155 138.067 215.963 165.933 215.963C193.42 215.963 221.667 199.155 248.267 190.751C276.387 182.348 304 182.348 331.867 190.751C359.227 199.155 386.333 215.963 414.2 232.77C442.193 249.578 469.933 266.385 497.8 266.385C525.033 266.385 552.267 249.578 580.133 224.366C608 199.155 635.867 165.54 663.733 154.353C690.967 142.955 718.2 154.51 746.067 182.348C773.807 210.185 801.8 255.355 829.667 255.198C856.773 255.355 884.133 210.185 912 182.348C939.613 154.51 967.733 142.955 994.333 165.54C1022.58 188.125 1050.07 243.8 1077.93 263.601C1105.42 283.193 1133.67 266.385 1160.27 249.578C1188.39 232.77 1216 215.963 1243.87 221.583C1271.23 226.993 1298.33 255.355 1326.2 260.765C1354.19 266.385 1381.93 249.578 1409.8 229.986C1437.03 210.185 1464.27 188.125 1492.13 182.348C1520 176.57 1547.87 188.125 1575.73 187.968C1602.97 188.125 1630.2 176.57 1658.07 182.348C1685.81 188.125 1713.8 210.185 1741.67 221.583C1768.77 232.77 1796.13 232.77 1810.07 232.77H1824V300H1810.19C1796.39 300 1768.27 300 1741.67 300C1713.42 300 1685.93 300 1658.07 300C1630.58 300 1602.33 300 1575.73 300C1547.61 300 1520 300 1492.13 300C1464.77 300 1437.67 300 1409.8 300C1381.81 300 1354.07 300 1326.2 300C1298.97 300 1271.73 300 1243.87 300C1216 300 1188.13 300 1160.27 300C1133.03 300 1105.8 300 1077.93 300C1050.19 300 1022.2 300 994.333 300C967.227 300 939.867 300 912 300C884.387 300 856.267 300 829.667 300C801.42 300 773.933 300 746.067 300C718.58 300 690.333 300 663.733 300C635.613 300 608 300 580.133 300C552.773 300 525.667 300 497.8 300C469.807 300 442.067 300 414.2 300C386.967 300 359.733 300 331.867 300C304 300 276.133 300 248.267 300C221.033 300 193.8 300 165.933 300C138.193 300 110.2 300 82.3333 300C55.2267 300 27.8667 300 13.9333 300H0V232.77Z" fill="#273036"/>
</g>
<defs>
<clipPath id="clip0_438_36">
<rect width="1824" height="300" fill="white"/>
</clipPath>
</defs>
</svg>
