<svg width="1824" height="200" viewBox="0 0 1824 200" fill="none" xmlns="http://www.w3.org/2000/svg">
<path d="M0 67.2299L13.8067 75.6336C27.6133 84.0373 55.7333 100.845 82.3333 100.845C110.58 100.845 138.067 84.0373 165.933 84.0373C193.42 84.0373 221.667 100.845 248.267 109.249C276.387 117.652 304 117.652 331.867 109.249C359.227 100.845 386.333 84.0373 414.2 67.2299C442.193 50.4224 469.933 33.6149 497.8 33.6149C525.033 33.6149 552.267 50.4224 580.133 75.6336C608 100.845 635.867 134.46 663.733 145.647C690.967 157.045 718.2 145.49 746.067 117.652C773.807 89.8149 801.8 44.6448 829.667 44.8024C856.773 44.6448 884.133 89.8149 912 117.652C939.613 145.49 967.733 157.045 994.333 134.46C1022.58 111.875 1050.07 56.2 1077.93 36.3987C1105.42 16.8075 1133.67 33.6149 1160.27 50.4224C1188.39 67.2299 1216 84.0373 1243.87 78.4173C1271.23 73.0074 1298.33 44.6448 1326.2 39.2349C1354.19 33.6149 1381.93 50.4224 1409.8 70.0136C1437.03 89.8149 1464.27 111.875 1492.13 117.652C1520 123.43 1547.87 111.875 1575.73 112.032C1602.97 111.875 1630.2 123.43 1658.07 117.652C1685.81 111.875 1713.8 89.8149 1741.67 78.4173C1768.77 67.2299 1796.13 67.2299 1810.07 67.2299H1824V0H1810.19C1796.39 0 1768.27 0 1741.67 0C1713.42 0 1685.93 0 1658.07 0C1630.58 0 1602.33 0 1575.73 0C1547.61 0 1520 0 1492.13 0C1464.77 0 1437.67 0 1409.8 0C1381.81 0 1354.07 0 1326.2 0C1298.97 0 1271.73 0 1243.87 0C1216 0 1188.13 0 1160.27 0C1133.03 0 1105.8 0 1077.93 0C1050.19 0 1022.2 0 994.333 0C967.227 0 939.867 0 912 0C884.387 0 856.267 0 829.667 0C801.42 0 773.933 0 746.067 0C718.58 0 690.333 0 663.733 0C635.613 0 608 0 580.133 0C552.773 0 525.667 0 497.8 0C469.807 0 442.067 0 414.2 0C386.967 0 359.733 0 331.867 0C304 0 276.133 0 248.267 0C221.033 0 193.8 0 165.933 0C138.193 0 110.2 0 82.3333 0C55.2267 0 27.8667 0 13.9333 0H0V67.2299Z" fill="#273036"/>
</svg>
