<svg width="1440" height="320" viewBox="0 0 1440 320" fill="none" xmlns="http://www.w3.org/2000/svg">
<path d="M0 320L7.3 309.3C14.5 299 29 277 44 245.3C58.2 213 73 171 87 176C101.8 181 116 235 131 266.7C145.5 299 160 309 175 266.7C189.1 224 204 128 218 112C232.7 96 247 160 262 170.7C276.4 181 291 139 305 117.3C320 96 335 96 349 117.3C363.6 139 378 181 393 181.3C407.3 181 422 139 436 128C450.9 117 465 139 480 170.7C494.5 203 509 245 524 234.7C538.2 224 553 160 567 154.7C581.8 149 596 203 611 224C625.5 245 640 235 655 197.3C669.1 160 684 96 698 90.7C712.7 85 727 139 742 176C756.4 213 771 235 785 213.3C800 192 815 128 829 122.7C843.6 117 858 171 873 192C887.3 213 902 203 916 170.7C930.9 139 945 85 960 64C974.5 43 989 53 1004 48C1018.2 43 1033 21 1047 21.3C1061.8 21 1076 43 1091 58.7C1105.5 75 1120 85 1135 101.3C1149.1 117 1164 139 1178 138.7C1192.7 139 1207 117 1222 117.3C1236.4 117 1251 139 1265 176C1280 213 1295 267 1309 240C1323.6 213 1338 107 1353 58.7C1367.3 11 1382 21 1396 42.7C1410.9 64 1425 96 1433 112L1440 128V0H1432.7C1425.5 0 1411 0 1396 0C1381.8 0 1367 0 1353 0C1338.2 0 1324 0 1309 0C1294.5 0 1280 0 1265 0C1250.9 0 1236 0 1222 0C1207.3 0 1193 0 1178 0C1163.6 0 1149 0 1135 0C1120 0 1105 0 1091 0C1076.4 0 1062 0 1047 0C1032.7 0 1018 0 1004 0C989.1 0 975 0 960 0C945.5 0 931 0 916 0C901.8 0 887 0 873 0C858.2 0 844 0 829 0C814.5 0 800 0 785 0C770.9 0 756 0 742 0C727.3 0 713 0 698 0C683.6 0 669 0 655 0C640 0 625 0 611 0C596.4 0 582 0 567 0C552.7 0 538 0 524 0C509.1 0 495 0 480 0C465.5 0 451 0 436 0C421.8 0 407 0 393 0C378.2 0 364 0 349 0C334.5 0 320 0 305 0C290.9 0 276 0 262 0C247.3 0 233 0 218 0C203.6 0 189 0 175 0C160 0 145 0 131 0C116.4 0 102 0 87 0C72.7 0 58 0 44 0C29.1 0 15 0 7 0H0V320Z" fill="#273036"/>
</svg>
